# Blender v3.1.2 OBJ File: 'shelf.blend'
# www.blender.org
mtllib shelf.mtl
o Cube_Cube.001
v 3.527875 0.000000 2.437126
v 3.527875 7.038328 2.437126
v 3.527875 0.000000 2.133506
v 3.527875 7.038328 2.133506
v 3.872479 0.000000 2.437126
v 3.872479 7.038328 2.437126
v 3.872479 0.000000 2.133506
v 3.872479 7.038328 2.133506
vt 0.375000 0.000000
vt 0.625000 0.000000
vt 0.625000 0.250000
vt 0.375000 0.250000
vt 0.625000 0.500000
vt 0.375000 0.500000
vt 0.625000 0.750000
vt 0.375000 0.750000
vt 0.625000 1.000000
vt 0.375000 1.000000
vt 0.125000 0.500000
vt 0.125000 0.750000
vt 0.875000 0.500000
vt 0.875000 0.750000
vn -1.0000 0.0000 0.0000
vn 0.0000 0.0000 -1.0000
vn 1.0000 0.0000 0.0000
vn 0.0000 0.0000 1.0000
vn 0.0000 -1.0000 0.0000
vn 0.0000 1.0000 0.0000
usemtl Material.001
s off
f 1/1/1 2/2/1 4/3/1 3/4/1
f 3/4/2 4/3/2 8/5/2 7/6/2
f 7/6/3 8/5/3 6/7/3 5/8/3
f 5/8/4 6/7/4 2/9/4 1/10/4
f 3/11/5 7/6/5 5/8/5 1/12/5
f 8/5/6 4/13/6 2/14/6 6/7/6
o Cube.001_Cube.002
v 3.527875 0.000000 -2.278669
v 3.527875 7.038328 -2.278669
v 3.527875 0.000000 -2.582289
v 3.527875 7.038328 -2.582289
v 3.872479 0.000000 -2.278669
v 3.872479 7.038328 -2.278669
v 3.872479 0.000000 -2.582289
v 3.872479 7.038328 -2.582289
vt 0.375000 0.000000
vt 0.625000 0.000000
vt 0.625000 0.250000
vt 0.375000 0.250000
vt 0.625000 0.500000
vt 0.375000 0.500000
vt 0.625000 0.750000
vt 0.375000 0.750000
vt 0.625000 1.000000
vt 0.375000 1.000000
vt 0.125000 0.500000
vt 0.125000 0.750000
vt 0.875000 0.500000
vt 0.875000 0.750000
vn -1.0000 0.0000 0.0000
vn 0.0000 0.0000 -1.0000
vn 1.0000 0.0000 0.0000
vn 0.0000 0.0000 1.0000
vn 0.0000 -1.0000 0.0000
vn 0.0000 1.0000 0.0000
usemtl Material.002
s off
f 9/15/7 10/16/7 12/17/7 11/18/7
f 11/18/8 12/17/8 16/19/8 15/20/8
f 15/20/9 16/19/9 14/21/9 13/22/9
f 13/22/10 14/21/10 10/23/10 9/24/10
f 11/25/11 15/20/11 13/22/11 9/26/11
f 16/19/12 12/27/12 10/28/12 14/21/12
o Cube.002_Cube.003
v 6.606856 0.000000 -2.278669
v 6.606856 7.038328 -2.278669
v 6.606856 0.000000 -2.582289
v 6.606856 7.038328 -2.582289
v 6.951460 0.000000 -2.278669
v 6.951460 7.038328 -2.278669
v 6.951460 0.000000 -2.582289
v 6.951460 7.038328 -2.582289
vt 0.375000 0.000000
vt 0.625000 0.000000
vt 0.625000 0.250000
vt 0.375000 0.250000
vt 0.625000 0.500000
vt 0.375000 0.500000
vt 0.625000 0.750000
vt 0.375000 0.750000
vt 0.625000 1.000000
vt 0.375000 1.000000
vt 0.125000 0.500000
vt 0.125000 0.750000
vt 0.875000 0.500000
vt 0.875000 0.750000
vn -1.0000 0.0000 0.0000
vn 0.0000 0.0000 -1.0000
vn 1.0000 0.0000 0.0000
vn 0.0000 0.0000 1.0000
vn 0.0000 -1.0000 0.0000
vn 0.0000 1.0000 0.0000
usemtl Material.003
s off
f 17/29/13 18/30/13 20/31/13 19/32/13
f 19/32/14 20/31/14 24/33/14 23/34/14
f 23/34/15 24/33/15 22/35/15 21/36/15
f 21/36/16 22/35/16 18/37/16 17/38/16
f 19/39/17 23/34/17 21/36/17 17/40/17
f 24/33/18 20/41/18 18/42/18 22/35/18
o Cube.003_Cube.004
v 6.606856 0.000000 2.421557
v 6.606856 7.038328 2.421557
v 6.606856 0.000000 2.117937
v 6.606856 7.038328 2.117937
v 6.951460 0.000000 2.421557
v 6.951460 7.038328 2.421557
v 6.951460 0.000000 2.117937
v 6.951460 7.038328 2.117937
vt 0.375000 0.000000
vt 0.625000 0.000000
vt 0.625000 0.250000
vt 0.375000 0.250000
vt 0.625000 0.500000
vt 0.375000 0.500000
vt 0.625000 0.750000
vt 0.375000 0.750000
vt 0.625000 1.000000
vt 0.375000 1.000000
vt 0.125000 0.500000
vt 0.125000 0.750000
vt 0.875000 0.500000
vt 0.875000 0.750000
vn -1.0000 0.0000 0.0000
vn 0.0000 0.0000 -1.0000
vn 1.0000 0.0000 0.0000
vn 0.0000 0.0000 1.0000
vn 0.0000 -1.0000 0.0000
vn 0.0000 1.0000 0.0000
usemtl Material.004
s off
f 25/43/19 26/44/19 28/45/19 27/46/19
f 27/46/20 28/45/20 32/47/20 31/48/20
f 31/48/21 32/47/21 30/49/21 29/50/21
f 29/50/22 30/49/22 26/51/22 25/52/22
f 27/53/23 31/48/23 29/50/23 25/54/23
f 32/47/24 28/55/24 26/56/24 30/49/24
o Cube.004_Cube.005
v 3.504521 0.000000 2.110915
v 3.504521 0.139490 2.110915
v 3.504521 0.000000 -2.271981
v 3.504521 0.139490 -2.271981
v 6.953927 0.000000 2.110915
v 6.953927 0.139490 2.110915
v 6.953927 0.000000 -2.271981
v 6.953927 0.139490 -2.271981
vt 0.375000 0.000000
vt 0.625000 0.000000
vt 0.625000 0.250000
vt 0.375000 0.250000
vt 0.625000 0.500000
vt 0.375000 0.500000
vt 0.625000 0.750000
vt 0.375000 0.750000
vt 0.625000 1.000000
vt 0.375000 1.000000
vt 0.000085 0.999916
vt 0.000085 0.000085
vt 0.714690 0.000085
vt 0.714689 0.999916
vt 0.714689 0.000085
vt 0.714689 0.999915
vt 0.000085 0.999915
vt 0.000085 0.000085
vn -1.0000 0.0000 0.0000
vn 0.0000 0.0000 -1.0000
vn 1.0000 0.0000 0.0000
vn 0.0000 0.0000 1.0000
vn 0.0000 -1.0000 0.0000
vn 0.0000 1.0000 0.0000
usemtl Material.005
s off
f 33/57/25 34/58/25 36/59/25 35/60/25
f 35/60/26 36/59/26 40/61/26 39/62/26
f 39/62/27 40/61/27 38/63/27 37/64/27
f 37/64/28 38/63/28 34/65/28 33/66/28
f 35/67/29 39/68/29 37/69/29 33/70/29
f 40/71/30 36/72/30 34/73/30 38/74/30
o Cube.005_Cube.006
v 3.504521 2.065230 2.110915
v 3.504521 2.204720 2.110915
v 3.504521 2.065230 -2.271981
v 3.504521 2.204720 -2.271981
v 6.953927 2.065230 2.110915
v 6.953927 2.204720 2.110915
v 6.953927 2.065230 -2.271981
v 6.953927 2.204720 -2.271981
vt 0.375000 0.000000
vt 0.625000 0.000000
vt 0.625000 0.250000
vt 0.375000 0.250000
vt 0.625000 0.500000
vt 0.375000 0.500000
vt 0.625000 0.750000
vt 0.375000 0.750000
vt 0.625000 1.000000
vt 0.375000 1.000000
vt 0.000085 0.999916
vt 0.000085 0.000085
vt 0.714690 0.000085
vt 0.714689 0.999916
vt 0.714689 0.000085
vt 0.714689 0.999915
vt 0.000085 0.999915
vt 0.000085 0.000085
vn -1.0000 0.0000 0.0000
vn 0.0000 0.0000 -1.0000
vn 1.0000 0.0000 0.0000
vn 0.0000 0.0000 1.0000
vn 0.0000 -1.0000 0.0000
vn 0.0000 1.0000 0.0000
usemtl Material.006
s off
f 41/75/31 42/76/31 44/77/31 43/78/31
f 43/78/32 44/77/32 48/79/32 47/80/32
f 47/80/33 48/79/33 46/81/33 45/82/33
f 45/82/34 46/81/34 42/83/34 41/84/34
f 43/85/35 47/86/35 45/87/35 41/88/35
f 48/89/36 44/90/36 42/91/36 46/92/36
o Cube.006_Cube.007
v 3.504521 4.476022 2.110915
v 3.504521 4.615512 2.110915
v 3.504521 4.476022 -2.271981
v 3.504521 4.615512 -2.271981
v 6.953927 4.476022 2.110915
v 6.953927 4.615512 2.110915
v 6.953927 4.476022 -2.271981
v 6.953927 4.615512 -2.271981
vt 0.375000 0.000000
vt 0.625000 0.000000
vt 0.625000 0.250000
vt 0.375000 0.250000
vt 0.625000 0.500000
vt 0.375000 0.500000
vt 0.625000 0.750000
vt 0.375000 0.750000
vt 0.625000 1.000000
vt 0.375000 1.000000
vt 0.000085 0.999916
vt 0.000085 0.000085
vt 0.714690 0.000085
vt 0.714689 0.999916
vt 0.714689 0.000085
vt 0.714689 0.999915
vt 0.000085 0.999915
vt 0.000085 0.000085
vn -1.0000 0.0000 0.0000
vn 0.0000 0.0000 -1.0000
vn 1.0000 0.0000 0.0000
vn 0.0000 0.0000 1.0000
vn 0.0000 -1.0000 0.0000
vn 0.0000 1.0000 0.0000
usemtl Material.007
s off
f 49/93/37 50/94/37 52/95/37 51/96/37
f 51/96/38 52/95/38 56/97/38 55/98/38
f 55/98/39 56/97/39 54/99/39 53/100/39
f 53/100/40 54/99/40 50/101/40 49/102/40
f 51/103/41 55/104/41 53/105/41 49/106/41
f 56/107/42 52/108/42 50/109/42 54/110/42
o Cube.007_Cube.008
v 3.504521 6.711757 2.110915
v 3.504521 6.851247 2.110915
v 3.504521 6.711757 -2.271981
v 3.504521 6.851247 -2.271981
v 6.953927 6.711757 2.110915
v 6.953927 6.851247 2.110915
v 6.953927 6.711757 -2.271981
v 6.953927 6.851247 -2.271981
vt 0.375000 0.000000
vt 0.625000 0.000000
vt 0.625000 0.250000
vt 0.375000 0.250000
vt 0.625000 0.500000
vt 0.375000 0.500000
vt 0.625000 0.750000
vt 0.375000 0.750000
vt 0.625000 1.000000
vt 0.375000 1.000000
vt 0.000085 0.999916
vt 0.000085 0.000085
vt 0.714690 0.000085
vt 0.714689 0.999916
vt 0.714689 0.000085
vt 0.714689 0.999915
vt 0.000085 0.999915
vt 0.000085 0.000085
vn -1.0000 0.0000 0.0000
vn 0.0000 0.0000 -1.0000
vn 1.0000 0.0000 0.0000
vn 0.0000 0.0000 1.0000
vn 0.0000 -1.0000 0.0000
vn 0.0000 1.0000 0.0000
usemtl Material.008
s off
f 57/111/43 58/112/43 60/113/43 59/114/43
f 59/114/44 60/113/44 64/115/44 63/116/44
f 63/116/45 64/115/45 62/117/45 61/118/45
f 61/118/46 62/117/46 58/119/46 57/120/46
f 59/121/47 63/122/47 61/123/47 57/124/47
f 64/125/48 60/126/48 58/127/48 62/128/48
